<?xml version="1.0" encoding="UTF-8" standalone="no"?>
<!DOCTYPE svg PUBLIC "-//W3C//DTD SVG 1.1//EN" "http://www.w3.org/Graphics/SVG/1.1/DTD/svg11.dtd">
<!-- 由 Microsoft Visio, SVG Export 生成 系统图标.svg Page-1 -->
<svg xmlns="http://www.w3.org/2000/svg" xmlns:xlink="http://www.w3.org/1999/xlink" xmlns:ev="http://www.w3.org/2001/xml-events"
		xmlns:v="http://schemas.microsoft.com/visio/2003/SVGExtensions/" width="3.69098in" height="2.60057in"
		viewBox="0 0 265.751 187.241" xml:space="preserve" color-interpolation-filters="sRGB" class="st2">
	<v:documentProperties v:langID="2052" v:metric="true" v:viewMarkup="false">
		<v:userDefs>
			<v:ud v:nameU="msvNoAutoConnect" v:val="VT0(1):26"/>
		</v:userDefs>
	</v:documentProperties>

	<style type="text/css">
	<![CDATA[
		.st1 {fill:#205867;stroke:#000000;stroke-linecap:round;stroke-linejoin:round;stroke-width:0.75}
		.st2 {fill:none;fill-rule:evenodd;font-size:12px;overflow:visible;stroke-linecap:square;stroke-miterlimit:3}
	]]>
	</style>

	<g v:mID="0" v:index="1" v:groupContext="foregroundPage">
		<title>页-1</title>
		<v:pageProperties v:drawingScale="0.0393701" v:pageScale="0.0393701" v:drawingUnits="24" v:shadowOffsetX="8.50394"
				v:shadowOffsetY="-8.50394"/>
		<g id="group1-1" transform="translate(64.1278,-60.8668)" v:mID="1" v:groupContext="group">
			<v:userDefs>
				<v:ud v:nameU="visVersion" v:prompt="" v:val="VT0(17):26"/>
			</v:userDefs>
			<title>齿轮</title>
			<g id="shape2-2" v:mID="2" v:groupContext="shape">
				<title>工作表.2</title>
				<path d="M58.85 187.24 C55.62 187.24 52.38 187.24 49.15 187.24 C48.04 186.61 47.51 185.66 47.31 184.39 C46.71 180.36
							 45.99 176.35 45.37 172.33 C45.25 171.51 45.01 171.06 44.11 170.84 C40.64 170.02 37.39 168.62 34.33 166.78
							 C33.69 166.4 33.27 166.41 32.67 166.85 C29.27 169.33 25.84 171.78 22.41 174.23 C20.78 175.4 19.71 175.31
							 18.31 173.92 C16.7 172.31 15.08 170.69 13.46 169.08 C11.88 167.5 11.8 166.55 13.08 164.76 C15.52 161.36
							 17.94 157.96 20.4 154.58 C20.8 154.04 20.9 153.65 20.51 153.01 C18.6 149.88 17.23 146.5 16.34 142.94
							 C16.17 142.26 15.85 142.04 15.24 141.94 C11.25 141.3 7.27 140.6 3.28 140.01 C1.88 139.81 0.73 139.35
							 0 138.09 C0 134.86 0 131.62 0 128.39 C0.65 127.24 1.65 126.72 2.95 126.53 C6.94 125.93 10.92 125.21
							 14.91 124.62 C15.81 124.48 16.21 124.14 16.42 123.26 C17.25 119.82 18.65 116.61 20.46 113.58 C20.84
							 112.95 20.85 112.53 20.4 111.92 C17.89 108.49 15.42 105.03 12.95 101.57 C11.87 100.06 11.96 98.95 13.25
							 97.64 C14.93 95.94 16.62 94.25 18.32 92.57 C19.73 91.16 20.75 91.09 22.4 92.27 C25.85 94.74 29.31 97.21
							 32.76 99.7 C33.24 100.05 33.58 100.14 34.14 99.8 C37.31 97.88 40.71 96.47 44.31 95.59 C44.99 95.42 45.21
							 95.09 45.31 94.48 C45.94 90.49 46.64 86.52 47.23 82.52 C47.44 81.13 47.88 79.97 49.15 79.24 C52.38 79.24
							 55.62 79.24 58.85 79.24 C59.97 79.87 60.5 80.82 60.7 82.09 C61.31 86.12 62.03 90.13 62.64 94.15 C62.77
							 95.03 63.1 95.45 63.99 95.67 C67.46 96.52 70.71 97.92 73.76 99.76 C74.33 100.09 74.7 100.1 75.24 99.7
							 C78.68 97.2 82.14 94.73 85.59 92.26 C87.23 91.08 88.28 91.17 89.69 92.56 C91.3 94.18 92.92 95.79 94.53
							 97.41 C96.11 98.99 96.2 99.94 94.92 101.73 C92.47 105.16 90.02 108.59 87.54 112 C87.2 112.48 87.09 112.82
							 87.44 113.39 C89.37 116.55 90.78 119.95 91.66 123.55 C91.83 124.24 92.17 124.45 92.77 124.54 C96.76
							 125.18 100.73 125.88 104.73 126.47 C106.12 126.67 107.27 127.12 108 128.39 C108 131.55 108 134.72 108
							 137.88 C107.51 139.11 106.6 139.69 105.29 139.89 C101.16 140.52 97.05 141.25 92.92 141.9 C92.23 142.01
							 91.85 142.22 91.66 143 C90.77 146.56 89.36 149.92 87.45 153.06 C87.12 153.61 87.17 153.96 87.53 154.45
							 C90.07 157.95 92.58 161.46 95.09 164.98 C96.12 166.41 96.02 167.58 94.77 168.83 C93.09 170.53 91.4 172.22
							 89.7 173.91 C88.28 175.33 87.24 175.41 85.62 174.25 C82.16 171.77 78.7 169.3 75.27 166.8 C74.73 166.41
							 74.36 166.37 73.79 166.72 C70.65 168.63 67.27 170.01 63.71 170.9 C63.05 171.07 62.8 171.37 62.7 172
							 C62.06 176.02 61.36 180.03 60.75 184.06 C60.55 185.42 60.07 186.53 58.85 187.24 ZM83.05 133.24 A29.0536
							 29.054 -180 1 0 24.95 133.24 A29.0536 29.054 -180 1 0 83.05 133.24 Z" class="st1"/>
			</g>
		</g>
		<g id="group4-4" transform="translate(-2.84828,-21.6736) rotate(-10)" v:mID="4" v:groupContext="group">
			<v:userDefs>
				<v:ud v:nameU="visVersion" v:prompt="" v:val="VT0(17):26"/>
			</v:userDefs>
			<title>齿轮.4</title>
			<g id="shape5-5" v:mID="5" v:groupContext="shape">
				<title>工作表.5</title>
				<path d="M36.61 187.24 C34.6 187.24 32.58 187.24 30.57 187.24 C29.88 186.85 29.55 186.26 29.43 185.47 C29.05 182.96
							 28.61 180.47 28.22 177.97 C28.14 177.46 28 177.17 27.44 177.04 C25.28 176.53 23.26 175.66 21.36 174.51
							 C20.96 174.28 20.7 174.28 20.32 174.56 C18.21 176.1 16.07 177.62 13.94 179.15 C12.92 179.88 12.26 179.82
							 11.39 178.96 C10.39 177.95 9.38 176.95 8.38 175.94 C7.39 174.96 7.34 174.37 8.14 173.26 C9.65 171.14
							 11.16 169.03 12.69 166.93 C12.94 166.59 13 166.35 12.76 165.95 C11.57 164 10.72 161.9 10.16 159.68 C10.06
							 159.26 9.86 159.12 9.48 159.06 C7 158.66 4.52 158.23 2.04 157.86 C1.17 157.73 0.46 157.45 0 156.67 C0
							 154.66 0 152.65 0 150.63 C0.41 149.92 1.02 149.59 1.84 149.47 C4.32 149.1 6.79 148.66 9.27 148.29 C9.84
							 148.2 10.08 147.99 10.22 147.44 C10.73 145.3 11.6 143.3 12.73 141.42 C12.96 141.03 12.97 140.77 12.69
							 140.39 C11.13 138.26 9.59 136.1 8.06 133.95 C7.38 133.01 7.44 132.32 8.24 131.51 C9.29 130.45 10.34
							 129.4 11.39 128.35 C12.27 127.48 12.91 127.43 13.93 128.16 C16.08 129.7 18.23 131.24 20.38 132.79 C20.67
							 133.01 20.89 133.06 21.24 132.85 C23.21 131.65 25.32 130.78 27.56 130.23 C27.99 130.13 28.12 129.92
							 28.18 129.54 C28.58 127.06 29.01 124.58 29.38 122.1 C29.51 121.23 29.78 120.51 30.57 120.06 C32.58 120.06
							 34.6 120.06 36.61 120.06 C37.31 120.45 37.64 121.04 37.76 121.83 C38.14 124.34 38.58 126.83 38.96 129.34
							 C39.05 129.88 39.25 130.14 39.81 130.28 C41.96 130.81 43.98 131.68 45.88 132.82 C46.24 133.03 46.47
							 133.03 46.8 132.79 C48.94 131.23 51.09 129.69 53.24 128.16 C54.26 127.43 54.91 127.48 55.79 128.35 C56.8
							 129.35 57.8 130.36 58.8 131.36 C59.79 132.34 59.84 132.94 59.04 134.05 C57.52 136.18 55.99 138.31 54.46
							 140.44 C54.24 140.73 54.18 140.95 54.39 141.3 C55.59 143.27 56.47 145.38 57.01 147.62 C57.12 148.05
							 57.33 148.18 57.71 148.24 C60.19 148.64 62.66 149.07 65.15 149.44 C66.01 149.57 66.73 149.85 67.18 150.63
							 C67.18 152.6 67.18 154.57 67.18 156.54 C66.88 157.3 66.31 157.66 65.5 157.79 C62.93 158.18 60.37 158.63
							 57.8 159.04 C57.37 159.11 57.13 159.23 57.01 159.72 C56.46 161.94 55.59 164.03 54.4 165.98 C54.2 166.32
							 54.22 166.54 54.45 166.84 C56.03 169.02 57.59 171.21 59.15 173.39 C59.79 174.29 59.73 175.01 58.95 175.79
							 C57.9 176.85 56.85 177.9 55.8 178.95 C54.91 179.83 54.27 179.88 53.26 179.16 C51.11 177.62 48.96 176.08
							 46.82 174.53 C46.49 174.28 46.26 174.26 45.9 174.48 C43.95 175.67 41.85 176.52 39.63 177.08 C39.22 177.18
							 39.06 177.37 39 177.76 C38.6 180.26 38.17 182.76 37.79 185.26 C37.66 186.11 37.37 186.8 36.61 187.24
							 ZM51.66 153.65 A18.0727 18.0729 -180 1 0 15.52 153.65 A18.0727 18.0729 -180 1 0 51.66 153.65 Z"
						class="st1"/>
			</g>
		</g>
		<g id="group6-7" transform="translate(122.835,-15.1554) rotate(-10)" v:mID="6" v:groupContext="group">
			<v:userDefs>
				<v:ud v:nameU="visVersion" v:prompt="" v:val="VT0(17):26"/>
			</v:userDefs>
			<title>齿轮.6</title>
			<g id="shape7-8" v:mID="7" v:groupContext="shape">
				<title>工作表.7</title>
				<path d="M51.13 187.24 C48.32 187.24 45.51 187.24 42.7 187.24 C41.74 186.69 41.27 185.87 41.11 184.76 C40.58 181.26
							 39.96 177.78 39.42 174.29 C39.31 173.57 39.1 173.18 38.32 173 C35.31 172.28 32.48 171.06 29.83 169.47
							 C29.27 169.13 28.91 169.14 28.39 169.52 C25.43 171.68 22.45 173.81 19.47 175.94 C18.05 176.95 17.12
							 176.88 15.91 175.67 C14.51 174.27 13.1 172.87 11.7 171.46 C10.32 170.09 10.25 169.26 11.36 167.71 C13.48
							 164.76 15.59 161.8 17.72 158.87 C18.07 158.4 18.16 158.06 17.82 157.51 C16.16 154.78 14.97 151.85 14.19
							 148.75 C14.05 148.17 13.77 147.97 13.24 147.88 C9.77 147.33 6.32 146.72 2.85 146.21 C1.63 146.03 0.64
							 145.63 0 144.54 C0 141.73 0 138.92 0 136.11 C0.57 135.12 1.43 134.66 2.56 134.49 C6.03 133.98 9.48 133.35
							 12.95 132.84 C13.74 132.72 14.08 132.42 14.27 131.65 C14.99 128.67 16.2 125.88 17.77 123.25 C18.1 122.7
							 18.11 122.33 17.72 121.81 C15.54 118.83 13.4 115.82 11.25 112.82 C10.31 111.5 10.39 110.53 11.51 109.4
							 C12.97 107.93 14.44 106.46 15.91 104.99 C17.14 103.77 18.03 103.71 19.46 104.73 C22.46 106.88 25.47
							 109.03 28.46 111.19 C28.87 111.49 29.17 111.57 29.66 111.28 C32.42 109.61 35.37 108.38 38.5 107.62 C39.09
							 107.47 39.28 107.19 39.36 106.65 C39.91 103.19 40.52 99.73 41.03 96.27 C41.21 95.05 41.6 94.05 42.7
							 93.41 C45.51 93.41 48.32 93.41 51.13 93.41 C52.1 93.96 52.56 94.79 52.73 95.89 C53.27 99.39 53.89 102.87
							 54.42 106.37 C54.53 107.13 54.82 107.49 55.6 107.69 C58.6 108.42 61.43 109.64 64.08 111.24 C64.57 111.53
							 64.9 111.53 65.37 111.19 C68.35 109.01 71.36 106.87 74.36 104.72 C75.79 103.7 76.69 103.77 77.92 104.99
							 C79.32 106.39 80.72 107.79 82.13 109.2 C83.5 110.57 83.57 111.4 82.46 112.95 C80.33 115.93 78.2 118.91
							 76.06 121.87 C75.76 122.29 75.66 122.58 75.96 123.08 C77.64 125.83 78.86 128.78 79.63 131.91 C79.77
							 132.51 80.07 132.69 80.6 132.77 C84.06 133.32 87.51 133.93 90.98 134.44 C92.2 134.62 93.2 135.01 93.83
							 136.11 C93.83 138.86 93.83 141.61 93.83 144.36 C93.4 145.43 92.61 145.93 91.47 146.11 C87.89 146.65
							 84.31 147.28 80.73 147.85 C80.12 147.95 79.79 148.13 79.63 148.8 C78.86 151.9 77.64 154.82 75.98 157.55
							 C75.69 158.02 75.73 158.32 76.04 158.75 C78.25 161.79 80.43 164.85 82.61 167.9 C83.5 169.15 83.41 170.16
							 82.33 171.25 C80.87 172.72 79.4 174.19 77.93 175.66 C76.7 176.89 75.79 176.96 74.38 175.95 C71.38 173.8
							 68.37 171.66 65.39 169.48 C64.93 169.14 64.61 169.11 64.1 169.41 C61.38 171.08 58.44 172.27 55.35 173.05
							 C54.78 173.2 54.56 173.45 54.47 174 C53.91 177.49 53.3 180.98 52.78 184.48 C52.6 185.66 52.19 186.62
							 51.13 187.24 ZM72.15 140.33 A25.2408 25.2411 -180 1 0 21.67 140.33 A25.2408 25.2411 -180 1 0 72.15 140.33
							 Z" class="st1"/>
			</g>
		</g>
	</g>
</svg>
